<svg id="Слой_1" data-name="Слой 1" xmlns="http://www.w3.org/2000/svg" viewBox="0 0 349.74 111.43"><defs><style>.cls-1{fill:#fd5e00;}.cls-2{fill:#fff;}.cls-3{fill:#015792;}.cls-4{fill:none;stroke:#bf0500;stroke-miterlimit:10;stroke-width:13px;}</style></defs><path class="cls-1" d="M152.11,282.07a32.47,32.47,0,0,1-.61-6.32,33.25,33.25,0,0,1,56.34-23.93l-9,9.36c-6.61-6.38-16.85-7.76-25.88-2.2a18.13,18.13,0,0,0-8.43,15.52v3.57c0,1.13-.43,1.65-1,1.77Z" transform="translate(-94 -197)"/><polygon class="cls-2" points="60.01 65.66 73.01 90.19 75 90 60.01 62.88 60.01 65.66"/><path class="cls-2" d="M161,279.69a1.48,1.48,0,0,1-1.25-.68c-5.14-7.83-.66-20.59,9.57-27.29,7.88-5.16,19.34-4.73,26.58-1.63a1.49,1.49,0,0,1-1.17,2.75c-6.52-2.78-16.77-3.2-23.76,1.39-9.85,6.44-12.49,17.37-8.71,23.14a1.5,1.5,0,0,1-.44,2.08A1.53,1.53,0,0,1,161,279.69Z" transform="translate(-94 -197)"/><polygon class="cls-2" points="96.33 56.35 100.06 53.9 100.88 49.51 106.72 58.32 96.33 56.35"/><path class="cls-3" d="M94,197l8,17h36a12,12,0,0,1,12,11.7v.3c0,5-2,7.75-4,9.25a9.23,9.23,0,0,1-5.55,1.75H110.5l8.5,15h10.88l22.88,39.05c7.15,12.21,21,19.19,35,17a38.74,38.74,0,0,0,17.76-8L198,289s-11,8-20.08,4.54a25,25,0,0,1-13-11.19l-16.64-30.13S166,247,166,225a26.52,26.52,0,0,0-7.9-19.36A30.11,30.11,0,0,0,136.72,197Z" transform="translate(-94 -197)"/><path class="cls-4" d="M203.32,256.5" transform="translate(-94 -197)"/><polygon class="cls-1" points="43.35 89.22 35.15 89.22 6.65 40 14.85 40 43.35 89.22"/><polygon class="cls-1" points="63.35 104.72 54.15 104.72 25.65 56.28 34.85 56.28 63.35 104.72"/><path d="M239.55,272.53h-9.73v15.7h-5.15v-15.7h-9.73v-4.32h24.61Z" transform="translate(-94 -197)"/><path d="M257.32,288.52c-8.81,0-12.59-3.35-12.59-10.33v-10h5.15v10c0,2.81.77,6,7.44,6s7.44-3.23,7.44-6v-10h5.15v10C269.91,285.14,266.1,288.52,257.32,288.52Z" transform="translate(-94 -197)"/><path d="M294.43,282.28l3.69,6h-6.06l-3.24-5.35h-8.29v5.35h-5.15v-20h15.73c4.55,0,7.67,2.89,7.67,7.35A6.83,6.83,0,0,1,294.43,282.28Zm-13.9-3.72h9.15c1.55,0,3.95,0,3.95-3s-2.4-3-3.95-3h-9.15Z" transform="translate(-94 -197)"/><path d="M329.59,268.21v20h-7l-13.64-15v15h-5.15v-20h7l13.67,15v-15Z" transform="translate(-94 -197)"/><path d="M334.63,278.19c0-6.64,3.78-10.27,12.59-10.27s12.59,3.66,12.59,10.27-3.8,10.33-12.59,10.33S334.63,284.86,334.63,278.19Zm20,0c0-4.06-2.06-5.95-7.44-5.95s-7.44,1.86-7.44,5.95,2.09,6,7.44,6S354.66,282.28,354.66,278.19Z" transform="translate(-94 -197)"/><path d="M389.43,268.21l-10.3,20h-7l-10.3-20h5.78l8,16.22,8-16.22Z" transform="translate(-94 -197)"/><path d="M399.13,272.3v4.06h16v3.72h-16v4.06h16v4.09H394v-20h21.17v4.09Z" transform="translate(-94 -197)"/><path d="M439.39,282.28l3.69,6H437l-3.23-5.35h-8.3v5.35h-5.15v-20h15.74c4.55,0,7.67,2.89,7.67,7.35A6.83,6.83,0,0,1,439.39,282.28Zm-13.91-3.72h9.16c1.54,0,3.94,0,3.94-3s-2.4-3-3.94-3h-9.16Z" transform="translate(-94 -197)"/></svg>